#!OML:ASF I:\golf\golf\golf 2\Subject 1\2002-09-07\Subject1.ASF
:FULLY-SPECIFIED
:DEGREES
315
root -6.47868 18.1087 -3.64897 -166.723 -3.57823 -173.338
lowerback -7.54512 14.9017 12.9723
upperback -13.8196 17.1346 3.81695
thorax -8.45219 6.27596 -1.97006
lowerneck -2.21038 -20.212 -4.83379
upperneck 11.2321 -28.366 2.90859
head 4.84329 -14.257 -0.0580489
rclavicle -8.18993e-014 -6.83819e-014
rhumerus 107.373 31.5411 -47.9236
rradius 81.6099
rwrist 16.8367
rhand -41.3673 33.012
rfingers 7.12502
rthumb -14.2855 3.52337
lclavicle -8.18993e-014 -6.83819e-014
lhumerus 64.5802 18.9155 72.7674
lradius 96.8942
lwrist 14.9012
lhand -35.6444 14.2499
lfingers 7.12502
lthumb -188.767 -135.952
rfemur 10.8306 -8.09316 22.2187
rtibia 20.7738
rfoot 32.0467 -22.2905
rtoes 17.2059
lfemur -25.9343 -16.9901 -12.6198
ltibia 21.7813
lfoot 49.5806 -36.7534
ltoes 44.2011
316
root -6.48092 18.1041 -3.68351 -166.695 -3.77124 -173.329
lowerback -7.63849 14.9671 13.0334
upperback -13.7584 17.2217 3.67398
thorax -8.25728 6.3387 -2.1073
lowerneck -2.85073 -20.2339 -4.89823
upperneck 11.3962 -28.3428 2.94201
head 5.00594 -14.2153 -0.127701
rclavicle 1.05753e-013 8.26944e-014
rhumerus 107.945 31.1891 -47.4901
rradius 82.3418
rwrist 16.8594
rhand -42.3637 33.7108
rfingers 7.12502
rthumb -15.2455 4.29256
lclavicle 1.05753e-013 8.26944e-014
lhumerus 65.2918 19.4308 72.9705
lradius 97.5615
lwrist 13.9044
lhand -36.2316 14.1827
lfingers 7.12502
lthumb -189.333 -136.044
rfemur 11.0517 -7.83434 22.3274
rtibia 20.4895
rfoot 31.6119 -22.776
rtoes 17.8767
lfemur -25.9647 -17.0241 -12.6373
ltibia 21.9463
lfoot 49.8335 -36.637
ltoes 44.5195
317
root -6.48305 18.0995 -3.71011 -166.609 -4.0039 -173.524
lowerback -7.7592 14.8769 12.8593
upperback -13.5545 17.1299 3.57916
thorax -7.97528 6.36407 -2.09601
lowerneck -4.14021 -20.2783 -4.88966
upperneck 11.9615 -28.3161 2.75054
head 5.35349 -14.1539 -0.359092
rclavicle -5.08889e-014 -3.18055e-015
rhumerus 108.824 30.7978 -46.9062
rradius 83.0875
rwrist 16.8877
rhand -43.4365 34.1103
rfingers 7.12502
rthumb -16.2787 4.77363
lclavicle -5.08889e-014 -3.18055e-015
lhumerus 66.1454 20.2068 73.1457
lradius 98.0961
lwrist 12.8697
lhand -36.5399 14.1535
lfingers 7.12502
lthumb -189.631 -136.087
rfemur 11.2305 -7.7157 22.233
rtibia 20.1652
rfoot 31.4369 -23.1707
rtoes 18.4405
lfemur -26.0916 -17.0482 -12.8603
ltibia 22.1453
lfoot 50.2734 -36.483
ltoes 44.8637
318
root -6.4894 18.0939 -3.74038 -166.506 -4.18827 -173.589
lowerback -7.96044 14.8837 12.8549
upperback -13.5229 17.1085 3.44587
thorax -7.78762 6.37197 -2.18302
lowerneck -4.85122 -20.245 -4.78156
upperneck 12.4917 -28.2179 2.41001
head 5.56434 -14.0913 -0.560041
rclavicle 8.98507e-014 7.79236e-014
rhumerus 109.315 30.5758 -46.6176
rradius 83.656
rwrist 16.814
rhand -44.234 34.8764
rfingers 7.12502
rthumb -17.0464 5.60431
lclavicle 8.98507e-014 7.79236e-014
lhumerus 66.6513 20.7605 73.1461
lradius 98.6303
lwrist 11.8664
lhand -36.6596 14.0736
lfingers 7.12502
lthumb -189.746 -136.172
rfemur 11.394 -7.72643 22.1999
rtibia 19.8745
rfoot 31.5509 -22.9351
rtoes 17.7486
lfemur -26.2069 -17.0928 -12.9343
ltibia 22.3219
lfoot 50.4054 -36.6151
ltoes 44.8217
319
root -6.49801 18.0856 -3.77304 -166.434 -4.34151 -173.5
lowerback -8.20273 14.9666 13.0288
upperback -13.6273 17.1406 3.31677
thorax -7.68688 6.35995 -2.3373
lowerneck -4.84807 -20.1685 -4.69941
upperneck 12.6509 -28.0954 2.19618
head 5.56814 -14.0427 -0.618574
rclavicle -9.54166e-015 3.81667e-014
rhumerus 109.418 30.6095 -46.6141
rradius 84.1534
rwrist 16.7948
rhand -44.8538 35.8507
rfingers 7.12502
rthumb -17.643 6.63113
lclavicle -9.54166e-015 3.81667e-014
lhumerus 66.814 21.1038 72.9728
lradius 99.0908
lwrist 10.8995
lhand -37.1329 13.8952
lfingers 7.12502
lthumb -190.203 -136.372
rfemur 11.5527 -7.75402 22.3013
rtibia 19.6469
rfoot 31.5991 -22.5164
rtoes 16.765
lfemur -26.2735 -17.1458 -12.8446
ltibia 22.4531
lfoot 50.5961 -36.5693
ltoes 44.9292
